# xmcd
#
# Track frame offsets: 
#        150
#        18529
#        32293
#        50595
#        76105
#        98336
#        111403
#        125192
#        142157
#        156744
#        170717
#        186144
#        205372
#        220182
#        231440
#        247683
#
# Disc length: 3596 seconds
#
# Revision: 1
# Processed by: cddbd v1.5.1PL2 Copyright (c) Steve Scherf et al.
# Submitted via: ExactAudioCopy v0.95b3
#
DISCID=e40e0a10
DTITLE=Domnèrus, Sjökvist, Gustafsson - Heartfelt
DYEAR=1994
DGENRE=Jazz
TTITLE0=O Gud, All Sannings Källa
TTITLE1=Vid Groddammen
TTITLE2=The Shepherd
TTITLE3=TGTT - Somebody Cares
TTITLE4=Mood Indigo
TTITLE5=Vallåt från Mörsil
TTITLE6=Gymnepedie nr 3
TTITLE7=Hymn to freedom
TTITLE8=Sicilienne
TTITLE9=I Let A Song Go Out of My Heart
TTITLE10=Gymnopedie nr 1
TTITLE11=Tillägnan
TTITLE12=A Child is Born
TTITLE13=Min Längtan
TTITLE14=Tonight I Shall Sleep
TTITLE15=They Crucified My Lord
EXTD=YEAR: 1994
EXTT0=
EXTT1=
EXTT2=
EXTT3=
EXTT4=
EXTT5=
EXTT6=
EXTT7=
EXTT8=
EXTT9=
EXTT10=
EXTT11=
EXTT12=
EXTT13=
EXTT14=
EXTT15=
PLAYORDER=
